<mxfile host="app.diagrams.net" modified="2024-04-29T19:43:17.563Z" agent="Mozilla/5.0 (Windows NT 10.0; Win64; x64) AppleWebKit/537.36 (KHTML, like Gecko) Chrome/122.0.0.0 Safari/537.36" etag="ShEN8CBh-5I5bbkzy6MS" version="24.3.1" type="device">
  <diagram name="Pagina-1" id="yreeW4e1sbCAF6RY2aT7">
    <mxGraphModel dx="2227" dy="696" grid="1" gridSize="10" guides="1" tooltips="1" connect="1" arrows="1" fold="1" page="1" pageScale="1" pageWidth="827" pageHeight="1169" math="0" shadow="0">
      <root>
        <mxCell id="0" />
        <mxCell id="1" parent="0" />
        <mxCell id="A0MLNVmFlt8SJSRwKE7a-89" style="edgeStyle=orthogonalEdgeStyle;rounded=0;orthogonalLoop=1;jettySize=auto;html=1;exitX=0.5;exitY=1;exitDx=0;exitDy=0;" edge="1" parent="1" source="A0MLNVmFlt8SJSRwKE7a-1" target="A0MLNVmFlt8SJSRwKE7a-87">
          <mxGeometry relative="1" as="geometry" />
        </mxCell>
        <mxCell id="A0MLNVmFlt8SJSRwKE7a-1" value="Loop" style="ellipse;whiteSpace=wrap;html=1;" vertex="1" parent="1">
          <mxGeometry x="130" y="120" width="120" height="80" as="geometry" />
        </mxCell>
        <mxCell id="A0MLNVmFlt8SJSRwKE7a-32" value="SI" style="edgeStyle=orthogonalEdgeStyle;rounded=0;orthogonalLoop=1;jettySize=auto;html=1;exitX=1;exitY=0.5;exitDx=0;exitDy=0;" edge="1" parent="1" source="A0MLNVmFlt8SJSRwKE7a-87" target="A0MLNVmFlt8SJSRwKE7a-31">
          <mxGeometry relative="1" as="geometry">
            <mxPoint x="250" y="290" as="sourcePoint" />
            <Array as="points">
              <mxPoint x="370" y="290" />
            </Array>
          </mxGeometry>
        </mxCell>
        <mxCell id="A0MLNVmFlt8SJSRwKE7a-45" value="NO" style="edgeStyle=orthogonalEdgeStyle;rounded=0;orthogonalLoop=1;jettySize=auto;html=1;exitX=0;exitY=0.5;exitDx=0;exitDy=0;" edge="1" parent="1" source="A0MLNVmFlt8SJSRwKE7a-87" target="A0MLNVmFlt8SJSRwKE7a-44">
          <mxGeometry relative="1" as="geometry">
            <mxPoint x="130" y="290" as="sourcePoint" />
            <Array as="points">
              <mxPoint x="-130" y="290" />
            </Array>
          </mxGeometry>
        </mxCell>
        <mxCell id="A0MLNVmFlt8SJSRwKE7a-91" value="" style="edgeStyle=orthogonalEdgeStyle;rounded=0;orthogonalLoop=1;jettySize=auto;html=1;" edge="1" parent="1" source="A0MLNVmFlt8SJSRwKE7a-31" target="A0MLNVmFlt8SJSRwKE7a-90">
          <mxGeometry relative="1" as="geometry" />
        </mxCell>
        <mxCell id="A0MLNVmFlt8SJSRwKE7a-31" value="Spegni LED&lt;div style=&quot;border-color: var(--border-color);&quot;&gt;Spegni RELE&lt;/div&gt;" style="whiteSpace=wrap;html=1;" vertex="1" parent="1">
          <mxGeometry x="310" y="330" width="120" height="60" as="geometry" />
        </mxCell>
        <mxCell id="A0MLNVmFlt8SJSRwKE7a-33" value="FINE" style="ellipse;whiteSpace=wrap;html=1;" vertex="1" parent="1">
          <mxGeometry x="330" y="510" width="80" height="80" as="geometry" />
        </mxCell>
        <mxCell id="A0MLNVmFlt8SJSRwKE7a-38" value="" style="edgeStyle=orthogonalEdgeStyle;rounded=0;orthogonalLoop=1;jettySize=auto;html=1;" edge="1" parent="1" source="A0MLNVmFlt8SJSRwKE7a-35" target="A0MLNVmFlt8SJSRwKE7a-37">
          <mxGeometry relative="1" as="geometry" />
        </mxCell>
        <mxCell id="A0MLNVmFlt8SJSRwKE7a-35" value="Accendo LED&lt;div&gt;Aceendo RELE&lt;/div&gt;" style="whiteSpace=wrap;html=1;" vertex="1" parent="1">
          <mxGeometry x="-360" y="480" width="120" height="60" as="geometry" />
        </mxCell>
        <mxCell id="A0MLNVmFlt8SJSRwKE7a-48" value="" style="edgeStyle=orthogonalEdgeStyle;rounded=0;orthogonalLoop=1;jettySize=auto;html=1;" edge="1" parent="1" source="A0MLNVmFlt8SJSRwKE7a-37" target="A0MLNVmFlt8SJSRwKE7a-47">
          <mxGeometry relative="1" as="geometry" />
        </mxCell>
        <mxCell id="A0MLNVmFlt8SJSRwKE7a-37" value="Aspetto X&lt;div&gt;&amp;nbsp;(tempo di carico)&lt;/div&gt;" style="whiteSpace=wrap;html=1;" vertex="1" parent="1">
          <mxGeometry x="-360" y="580" width="120" height="60" as="geometry" />
        </mxCell>
        <mxCell id="A0MLNVmFlt8SJSRwKE7a-46" value="NO" style="edgeStyle=orthogonalEdgeStyle;rounded=0;orthogonalLoop=1;jettySize=auto;html=1;exitX=0;exitY=0.5;exitDx=0;exitDy=0;" edge="1" parent="1" source="A0MLNVmFlt8SJSRwKE7a-44" target="A0MLNVmFlt8SJSRwKE7a-35">
          <mxGeometry relative="1" as="geometry" />
        </mxCell>
        <mxCell id="A0MLNVmFlt8SJSRwKE7a-84" value="SI" style="edgeStyle=orthogonalEdgeStyle;rounded=0;orthogonalLoop=1;jettySize=auto;html=1;" edge="1" parent="1" source="A0MLNVmFlt8SJSRwKE7a-44" target="A0MLNVmFlt8SJSRwKE7a-83">
          <mxGeometry relative="1" as="geometry">
            <Array as="points">
              <mxPoint x="30" y="370" />
            </Array>
          </mxGeometry>
        </mxCell>
        <mxCell id="A0MLNVmFlt8SJSRwKE7a-44" value="SE&lt;br&gt;Iteraizoni massime superate" style="shape=hexagon;perimeter=hexagonPerimeter2;whiteSpace=wrap;html=1;fixedSize=1;" vertex="1" parent="1">
          <mxGeometry x="-190" y="330" width="120" height="80" as="geometry" />
        </mxCell>
        <mxCell id="A0MLNVmFlt8SJSRwKE7a-53" style="edgeStyle=orthogonalEdgeStyle;rounded=0;orthogonalLoop=1;jettySize=auto;html=1;exitX=0.5;exitY=1;exitDx=0;exitDy=0;entryX=0;entryY=0.5;entryDx=0;entryDy=0;" edge="1" parent="1" source="A0MLNVmFlt8SJSRwKE7a-47" target="A0MLNVmFlt8SJSRwKE7a-52">
          <mxGeometry relative="1" as="geometry" />
        </mxCell>
        <mxCell id="A0MLNVmFlt8SJSRwKE7a-47" value="Iterazioni ++" style="whiteSpace=wrap;html=1;" vertex="1" parent="1">
          <mxGeometry x="-360" y="680" width="120" height="60" as="geometry" />
        </mxCell>
        <mxCell id="A0MLNVmFlt8SJSRwKE7a-82" value="" style="edgeStyle=orthogonalEdgeStyle;rounded=0;orthogonalLoop=1;jettySize=auto;html=1;" edge="1" parent="1" source="A0MLNVmFlt8SJSRwKE7a-52" target="A0MLNVmFlt8SJSRwKE7a-81">
          <mxGeometry relative="1" as="geometry" />
        </mxCell>
        <mxCell id="A0MLNVmFlt8SJSRwKE7a-52" value="" style="whiteSpace=wrap;html=1;aspect=fixed;" vertex="1" parent="1">
          <mxGeometry x="-170" y="950" width="40" height="40" as="geometry" />
        </mxCell>
        <mxCell id="A0MLNVmFlt8SJSRwKE7a-61" value="SI" style="edgeStyle=orthogonalEdgeStyle;rounded=0;orthogonalLoop=1;jettySize=auto;html=1;" edge="1" parent="1" source="A0MLNVmFlt8SJSRwKE7a-56" target="A0MLNVmFlt8SJSRwKE7a-60">
          <mxGeometry relative="1" as="geometry">
            <Array as="points">
              <mxPoint x="220" y="610" />
            </Array>
          </mxGeometry>
        </mxCell>
        <mxCell id="A0MLNVmFlt8SJSRwKE7a-70" value="NO" style="edgeStyle=orthogonalEdgeStyle;rounded=0;orthogonalLoop=1;jettySize=auto;html=1;" edge="1" parent="1" source="A0MLNVmFlt8SJSRwKE7a-56" target="A0MLNVmFlt8SJSRwKE7a-69">
          <mxGeometry relative="1" as="geometry">
            <Array as="points">
              <mxPoint x="-130" y="610" />
            </Array>
          </mxGeometry>
        </mxCell>
        <mxCell id="A0MLNVmFlt8SJSRwKE7a-56" value="SE&lt;br&gt;IterazioniPause massime superate" style="shape=hexagon;perimeter=hexagonPerimeter2;whiteSpace=wrap;html=1;fixedSize=1;" vertex="1" parent="1">
          <mxGeometry x="-30" y="570" width="120" height="80" as="geometry" />
        </mxCell>
        <mxCell id="A0MLNVmFlt8SJSRwKE7a-64" value="" style="edgeStyle=orthogonalEdgeStyle;rounded=0;orthogonalLoop=1;jettySize=auto;html=1;" edge="1" parent="1" source="A0MLNVmFlt8SJSRwKE7a-60" target="A0MLNVmFlt8SJSRwKE7a-63">
          <mxGeometry relative="1" as="geometry" />
        </mxCell>
        <mxCell id="A0MLNVmFlt8SJSRwKE7a-60" value="Esegui Beep" style="whiteSpace=wrap;html=1;" vertex="1" parent="1">
          <mxGeometry x="160" y="650" width="120" height="60" as="geometry" />
        </mxCell>
        <mxCell id="A0MLNVmFlt8SJSRwKE7a-95" value="" style="edgeStyle=orthogonalEdgeStyle;rounded=0;orthogonalLoop=1;jettySize=auto;html=1;" edge="1" parent="1" source="A0MLNVmFlt8SJSRwKE7a-63" target="A0MLNVmFlt8SJSRwKE7a-94">
          <mxGeometry relative="1" as="geometry" />
        </mxCell>
        <mxCell id="A0MLNVmFlt8SJSRwKE7a-63" value="Aspetto X&lt;div&gt;(Pausa rumorosa)&lt;/div&gt;" style="whiteSpace=wrap;html=1;" vertex="1" parent="1">
          <mxGeometry x="160" y="730" width="120" height="60" as="geometry" />
        </mxCell>
        <mxCell id="A0MLNVmFlt8SJSRwKE7a-75" value="" style="edgeStyle=orthogonalEdgeStyle;rounded=0;orthogonalLoop=1;jettySize=auto;html=1;" edge="1" parent="1" source="A0MLNVmFlt8SJSRwKE7a-69" target="A0MLNVmFlt8SJSRwKE7a-74">
          <mxGeometry relative="1" as="geometry" />
        </mxCell>
        <mxCell id="A0MLNVmFlt8SJSRwKE7a-69" value="Aspetto X&lt;div&gt;(Pausa silenziosa)&lt;/div&gt;" style="whiteSpace=wrap;html=1;" vertex="1" parent="1">
          <mxGeometry x="-190" y="650" width="120" height="60" as="geometry" />
        </mxCell>
        <mxCell id="A0MLNVmFlt8SJSRwKE7a-77" style="edgeStyle=orthogonalEdgeStyle;rounded=0;orthogonalLoop=1;jettySize=auto;html=1;exitX=0.5;exitY=1;exitDx=0;exitDy=0;entryX=1;entryY=0.5;entryDx=0;entryDy=0;" edge="1" parent="1" source="A0MLNVmFlt8SJSRwKE7a-71" target="A0MLNVmFlt8SJSRwKE7a-52">
          <mxGeometry relative="1" as="geometry" />
        </mxCell>
        <mxCell id="A0MLNVmFlt8SJSRwKE7a-71" value="" style="whiteSpace=wrap;html=1;aspect=fixed;" vertex="1" parent="1">
          <mxGeometry y="899" width="40" height="40" as="geometry" />
        </mxCell>
        <mxCell id="A0MLNVmFlt8SJSRwKE7a-76" style="edgeStyle=orthogonalEdgeStyle;rounded=0;orthogonalLoop=1;jettySize=auto;html=1;exitX=0.5;exitY=1;exitDx=0;exitDy=0;entryX=0;entryY=0.5;entryDx=0;entryDy=0;" edge="1" parent="1" source="A0MLNVmFlt8SJSRwKE7a-74" target="A0MLNVmFlt8SJSRwKE7a-71">
          <mxGeometry relative="1" as="geometry" />
        </mxCell>
        <mxCell id="A0MLNVmFlt8SJSRwKE7a-74" value="IterazioniPause ++" style="whiteSpace=wrap;html=1;" vertex="1" parent="1">
          <mxGeometry x="-190" y="730" width="120" height="60" as="geometry" />
        </mxCell>
        <mxCell id="A0MLNVmFlt8SJSRwKE7a-81" value="FINE" style="ellipse;whiteSpace=wrap;html=1;" vertex="1" parent="1">
          <mxGeometry x="-190" y="1021" width="80" height="80" as="geometry" />
        </mxCell>
        <mxCell id="A0MLNVmFlt8SJSRwKE7a-98" style="edgeStyle=orthogonalEdgeStyle;rounded=0;orthogonalLoop=1;jettySize=auto;html=1;exitX=0.5;exitY=1;exitDx=0;exitDy=0;entryX=0.5;entryY=0;entryDx=0;entryDy=0;" edge="1" parent="1" source="A0MLNVmFlt8SJSRwKE7a-83" target="A0MLNVmFlt8SJSRwKE7a-97">
          <mxGeometry relative="1" as="geometry" />
        </mxCell>
        <mxCell id="A0MLNVmFlt8SJSRwKE7a-83" value="Reset&lt;div&gt;Iterazioni&lt;/div&gt;" style="whiteSpace=wrap;html=1;" vertex="1" parent="1">
          <mxGeometry x="-30" y="390" width="120" height="60" as="geometry" />
        </mxCell>
        <mxCell id="A0MLNVmFlt8SJSRwKE7a-87" value="SE&lt;div&gt;Feeder disabilitato ||&lt;/div&gt;&lt;div&gt;Sensore ALTO&lt;/div&gt;" style="shape=hexagon;perimeter=hexagonPerimeter2;whiteSpace=wrap;html=1;fixedSize=1;" vertex="1" parent="1">
          <mxGeometry x="130" y="250" width="120" height="80" as="geometry" />
        </mxCell>
        <mxCell id="A0MLNVmFlt8SJSRwKE7a-92" style="edgeStyle=orthogonalEdgeStyle;rounded=0;orthogonalLoop=1;jettySize=auto;html=1;exitX=0.5;exitY=1;exitDx=0;exitDy=0;" edge="1" parent="1" source="A0MLNVmFlt8SJSRwKE7a-90" target="A0MLNVmFlt8SJSRwKE7a-33">
          <mxGeometry relative="1" as="geometry" />
        </mxCell>
        <mxCell id="A0MLNVmFlt8SJSRwKE7a-90" value="Reset&lt;div&gt;Iterazioni&lt;/div&gt;&lt;div&gt;IterazioniPause&lt;/div&gt;" style="whiteSpace=wrap;html=1;" vertex="1" parent="1">
          <mxGeometry x="310" y="425" width="120" height="60" as="geometry" />
        </mxCell>
        <mxCell id="A0MLNVmFlt8SJSRwKE7a-96" style="edgeStyle=orthogonalEdgeStyle;rounded=0;orthogonalLoop=1;jettySize=auto;html=1;exitX=0.5;exitY=1;exitDx=0;exitDy=0;entryX=1;entryY=0.5;entryDx=0;entryDy=0;" edge="1" parent="1" source="A0MLNVmFlt8SJSRwKE7a-94" target="A0MLNVmFlt8SJSRwKE7a-71">
          <mxGeometry relative="1" as="geometry" />
        </mxCell>
        <mxCell id="A0MLNVmFlt8SJSRwKE7a-94" value="Reset&lt;div&gt;IterazioniPause&lt;/div&gt;" style="whiteSpace=wrap;html=1;" vertex="1" parent="1">
          <mxGeometry x="160" y="810" width="120" height="60" as="geometry" />
        </mxCell>
        <mxCell id="A0MLNVmFlt8SJSRwKE7a-99" style="edgeStyle=orthogonalEdgeStyle;rounded=0;orthogonalLoop=1;jettySize=auto;html=1;exitX=0.5;exitY=1;exitDx=0;exitDy=0;entryX=0.5;entryY=0;entryDx=0;entryDy=0;" edge="1" parent="1" source="A0MLNVmFlt8SJSRwKE7a-97" target="A0MLNVmFlt8SJSRwKE7a-56">
          <mxGeometry relative="1" as="geometry" />
        </mxCell>
        <mxCell id="A0MLNVmFlt8SJSRwKE7a-97" value="spengo LED&lt;div&gt;spengo RELE&lt;/div&gt;" style="whiteSpace=wrap;html=1;" vertex="1" parent="1">
          <mxGeometry x="-30" y="480" width="120" height="60" as="geometry" />
        </mxCell>
      </root>
    </mxGraphModel>
  </diagram>
</mxfile>
